# xmcd
#
# Track frame offsets:
# 150
# 21282
# 42025
# 60317
# 87252
# 107145
# 127395
# 150685
# 170892
# 189635
# 212247
# 224760
# 244780
#
# Disc length: 3472 seconds
#
#
# Revision: 0
# Processed by: cddbd v1.5.1PL0 Copyright (c) Steve Scherf et al.
# Submitted via: FreeRIP 2.70 
#
DISCID=c40d8e0d
DTITLE=Tony - O Pai te Espera
DYEAR=2002
DGENRE=Gospel
TTITLE0=O Pai te Espera - Josias Barbosa
TTITLE1=Sobre as Ondas - Armando Filho
TTITLE2=De Posse da Vitoria - Josias Barbosa
TTITLE3=Soberano - Armando Filho
TTITLE4=Igreja Pequena - Josias Barbosa
TTITLE5=O Nome - Edson Coelho
TTITLE6=Porto Seguro - Mario Fernando
TTITLE7=Volta Correndo - Josias Barbosa
TTITLE8=Alegria da Manha - Edson Coelho
TTITLE9=O Barro que Sobrou - Nilseu Buarque
TTITLE10=Abra o Coracao - Daniel Teixeira
TTITLE11=A Bencao que Deus Da - Josias Barbosa
TTITLE12=Anjo Crianca - Edson Coelho
EXTD=
EXTT0=
EXTT1=
EXTT2=
EXTT3=
EXTT4=
EXTT5=
EXTT6=
EXTT7=
EXTT8=
EXTT9=
EXTT10=
EXTT11=
EXTT12=
PLAYORDER=
